<svg width="495" height="437" viewBox="0 0 495 437" fill="none" xmlns="http://www.w3.org/2000/svg">
<path d="M350.897 34L279.663 189.846L448.848 217.024L243.426 244.201L106.865 400.048L178.099 244.201L8.91381 217.024L214.336 189.846L350.897 34Z" fill="white"/>
<path d="M457.382 88L436.889 132.834L485.56 140.652L426.464 148.471L387.179 193.304L407.671 148.471L359 140.652L418.096 132.834L457.382 88Z" fill="white"/>
<path d="M361.219 77.0586H365.552L363.643 81.2347H357.559L361.219 77.0586Z" fill="white"/>
<path d="M358.872 91.6798H348.41L352.071 87.502H360.781L358.872 91.6798Z" fill="white"/>
<path d="M354.101 102.119H339.262L342.922 97.9414H356.01L354.101 102.119Z" fill="white"/>
<path d="M330.109 112.563L335.601 106.297L337.401 104.242V108.385H351.236L349.326 112.563H330.109Z" fill="white"/>
<path d="M320.961 123.004L326.45 116.738H337.401V118.828H346.462L344.553 123.004H320.961Z" fill="white"/>
<path d="M311.812 133.448L317.302 127.184H337.403V129.272H341.691L339.782 133.448H311.812Z" fill="white"/>
<path d="M335.009 143.891H302.66L308.151 137.625H337.403V138.652L335.009 143.891Z" fill="white"/>
<path d="M330.234 154.332H293.51L298.999 148.066H333.097L330.234 154.332Z" fill="white"/>
<path d="M325.463 164.774H284.361L289.851 158.508H328.326L325.463 164.774Z" fill="white"/>
<path d="M320.686 175.217H275.207L280.698 168.951H323.549L320.686 175.217Z" fill="white"/>
<path d="M314.957 187.748H264.227L271.546 179.395H318.776L314.957 187.748Z" fill="white"/>
<path d="M309.228 200.278H253.246L260.566 191.924H313.047L309.228 200.278Z" fill="white"/>
<path d="M305.863 212.809H239.918L242.581 212.457L249.592 204.455H307.326L303.669 212.457L305.863 212.809Z" fill="white"/>
<path d="M337.401 244.138V242.05H189.119H170.669L176.396 250.404H367.154L414.515 244.138H337.401ZM207.899 265.022L205.034 271.288H262.77L268.26 265.022H207.899ZM198.353 285.908L195.488 292.172H244.47L249.959 285.908H198.353ZM189.119 348.562V346.474H170.669L166.851 354.828H189.119V355.34L189.568 354.828L195.059 348.562H189.119ZM161.123 367.358L157.305 375.712H171.268L178.589 367.358H161.123ZM145.85 400.773L142.08 409.023L149.308 400.773H145.85ZM156.35 377.8L152.533 386.154H162.119L169.439 377.8H156.35ZM146.804 398.685H151.138L160.289 388.242H151.577L146.804 398.685ZM165.896 356.916L162.078 365.27H180.418L187.738 356.916H165.896ZM189.119 338.12V336.03H175.442L171.623 344.384H198.72L204.208 338.12H189.119ZM189.119 327.678V325.588H180.215L176.396 333.942H207.869L213.358 327.678H189.119ZM189.119 317.234V315.146H184.988L181.169 323.5H217.019L222.51 317.234H189.119ZM189.119 306.792V306.107L185.942 313.058H226.169L231.659 306.792H189.119ZM193.58 296.35L190.715 302.616H235.32L240.809 296.35H193.58ZM203.124 275.466L200.261 281.73H253.62L259.11 275.466H203.124ZM189.119 254.58V252.492H193.58L184.988 260.846H288.228L335.589 254.58H189.119ZM422.879 231.608H337.401V229.518H189.119V227.43H129.408L157.305 237.872H461.875L422.879 231.608ZM344.867 219.076L337.401 217.878L331.868 216.988H208.336L145.192 225.342H383.872L344.867 219.076Z" fill="white"/>
</svg>
